<svg id="Capa_1" enable-background="new 0 0 502 502" height="512" viewBox="0 0 502 502" width="512" xmlns="http://www.w3.org/2000/svg" xmlns:xlink="http://www.w3.org/1999/xlink"><linearGradient id="SVGID_1_" gradientUnits="userSpaceOnUse" x1="251" x2="251" y1="190.737" y2="522.927"><stop offset="0" stop-color="#d56262"/><stop offset="1" stop-color="#e5909c"/></linearGradient><linearGradient id="lg1"><stop offset="0" stop-color="#efc27b"/><stop offset="1" stop-color="#f3d5a6"/></linearGradient><linearGradient id="SVGID_2_" gradientUnits="userSpaceOnUse" x1="251" x2="251" xlink:href="#lg1" y1="98.55" y2="-15.371"/><linearGradient id="SVGID_3_" gradientUnits="userSpaceOnUse" x1="251" x2="251" xlink:href="#lg1" y1="129.008" y2="264.919"/><linearGradient id="lg2"><stop offset="0" stop-color="#996c66"/><stop offset="1" stop-color="#ba8a6c"/></linearGradient><linearGradient id="SVGID_4_" gradientUnits="userSpaceOnUse" x1="216.921" x2="216.921" xlink:href="#lg2" y1="119.199" y2="228.297"/><linearGradient id="SVGID_5_" gradientUnits="userSpaceOnUse" x1="285.079" x2="285.079" xlink:href="#lg2" y1="119.199" y2="228.297"/><linearGradient id="SVGID_6_" gradientUnits="userSpaceOnUse" x1="21.104" x2="473.439" y1="127.13" y2="127.13"><stop offset="0" stop-color="#ad7d63"/><stop offset="1" stop-color="#cb9d82"/></linearGradient><g><path d="m407.847 152.137c97.642 95.146 59.321 206.463 24.015 291.207-14.794 35.509-49.46 58.656-87.929 58.656h-185.866c-38.469 0-73.134-23.147-87.929-58.657-35.305-84.743-73.627-196.06 24.015-291.206z" fill="url(#SVGID_1_)"/><path d="m444.59 92.762h-387.18c-15.934 0-28.851-12.917-28.851-28.851 0-35.297 28.614-63.911 63.91-63.911h317.061c35.297 0 63.911 28.614 63.911 63.911 0 15.934-12.917 28.851-28.851 28.851z" fill="url(#SVGID_2_)"/><path d="m75.612 57.762c-3.371 0-5.921-2.146-6.898-4.873-1.768-4.94-5.014-9.212-9.624-11.718-12.777-6.945-28.564 1.257-30.148 15.712-.253 2.308-.383 4.653-.383 7.028 0 15.934 12.917 28.851 28.851 28.851h156.387c9.665 0 17.5-7.835 17.5-17.5 0-9.665-7.835-17.5-17.5-17.5z" fill="#eaa950"/><path d="m436.423 129.191c17.858 14.996 35.392 49.982 47.165 83.979 9.129 26.361-15.284 52.043-42.066 44.232l-42.511-12.399c-20.363-5.939-42.042-5.609-62.215.947l-53.153 17.275c-21.216 6.895-44.071 6.895-65.287 0l-53.153-17.275c-20.173-6.556-41.852-6.886-62.215-.947l-42.511 12.399c-26.782 7.811-51.196-17.87-42.066-44.232 11.774-33.997 29.308-68.982 47.166-83.979z" fill="url(#SVGID_3_)"/><path d="m193.814 96.783c-13.537 25.189-27.711 55.735-37.825 90.871-5.663 19.674 5.694 40.215 25.368 45.878 19.713 5.674 40.226-5.732 45.878-25.368 13.315-46.252 35.489-83.721 52.073-111.38h-85.494z" fill="url(#SVGID_4_)"/><path d="m308.186 96.783c13.537 25.189 27.711 55.735 37.825 90.871 5.663 19.674-5.694 40.215-25.368 45.878-19.713 5.674-40.226-5.732-45.878-25.368-13.315-46.252-35.489-83.721-52.073-111.38h85.494z" fill="url(#SVGID_5_)"/><path d="m443.654 161.498h-385.308c-18.981 0-34.368-15.387-34.368-34.368 0-18.981 15.387-34.368 34.368-34.368h385.307c18.981 0 34.368 15.387 34.368 34.368.001 18.981-15.386 34.368-34.367 34.368z" fill="url(#SVGID_6_)"/><path d="m391.024 461.924c-2.486 0-4.976-.921-6.913-2.775-3.99-3.818-4.129-10.148-.31-14.139 2.905-3.036 5.469-6.416 7.619-10.046 2.815-4.751 8.945-6.322 13.7-3.507 4.752 2.815 6.322 8.948 3.507 13.7-2.927 4.94-6.418 9.544-10.377 13.681-1.964 2.053-4.593 3.086-7.226 3.086z" fill="#ffb0ba"/><path d="m415.58 413.291c-1.18 0-2.38-.211-3.548-.654-5.163-1.961-7.76-7.735-5.799-12.898 4.65-12.247 8.444-23.274 11.599-33.714 1.597-5.288 7.18-8.281 12.464-6.681 5.287 1.597 8.278 7.178 6.681 12.464-3.289 10.888-7.229 22.347-12.046 35.03-1.517 3.995-5.318 6.453-9.351 6.453z" fill="#ffb0ba"/><g><ellipse cx="163.115" cy="378.84" fill="#eaadcd" rx="14.936" ry="12.003"/><ellipse cx="338.886" cy="378.84" fill="#eaadcd" rx="14.936" ry="12.003"/><circle cx="188.721" cy="349.222" fill="#fff" r="29.618"/><ellipse cx="200.687" cy="349.222" fill="#3b3b44" rx="17.652" ry="17.652" transform="matrix(.23 -.973 .973 .23 -185.301 464.306)"/><circle cx="313.279" cy="349.222" fill="#fff" r="29.618"/><g fill="#3b3b44"><ellipse cx="325.182" cy="349.222" rx="17.652" ry="17.652" transform="matrix(.707 -.707 .707 .707 -151.693 332.223)"/><ellipse cx="251" cy="371.674" rx="13.252" ry="17.352"/></g></g></g></svg>